<?xml version="1.0" encoding="UTF-8" standalone="no"?>
<!DOCTYPE svg PUBLIC "-//W3C//DTD SVG 1.1//EN"
 "http://www.w3.org/Graphics/SVG/1.1/DTD/svg11.dtd">
<!-- Generated by graphviz version 2.43.0 (0)
 -->
<!-- Title: %3 Pages: 1 -->
<svg style="background:url(#bgGradient);" width="720pt" height="395pt"
 viewBox="0.00 0.00 720.00 394.55" xmlns="http://www.w3.org/2000/svg" xmlns:xlink="http://www.w3.org/1999/xlink">
<g id="graph0" class="graph" transform="scale(0.95 0.95) rotate(0) translate(4 410)">
<title>%3</title>
<polygon fill="white" stroke="transparent" points="-4,4 -4,-410 751.5,-410 751.5,4 -4,4"/>
<!-- title -->
<g id="node1" class="node">
<title>title</title>
<path fill="#0d1b2a" stroke="#333333" d="M447,-406C447,-406 249,-406 249,-406 243,-406 237,-400 237,-394 237,-394 237,-382 237,-382 237,-376 243,-370 249,-370 249,-370 447,-370 447,-370 453,-370 459,-376 459,-382 459,-382 459,-394 459,-394 459,-400 453,-406 447,-406"/>
<text text-anchor="middle" x="348" y="-384.3" font-family="Arial" font-size="14.00" fill="white">Sistemas do Jogo (Organograma)</text>
</g>
<!-- game_loop -->
<g id="node2" class="node">
<title>game_loop</title>
<path fill="#fefae0" stroke="#333333" d="M462,-334C462,-334 234,-334 234,-334 228,-334 222,-328 222,-322 222,-322 222,-310 222,-310 222,-304 228,-298 234,-298 234,-298 462,-298 462,-298 468,-298 474,-304 474,-310 474,-310 474,-322 474,-322 474,-328 468,-334 462,-334"/>
<text text-anchor="middle" x="348" y="-319" font-family="Arial" font-size="10.00">Game Loop &amp; Calendário</text>
<text text-anchor="middle" x="348" y="-308" font-family="Arial" font-size="10.00">Dias • Horas • Semana (seg–sáb) • Domingo especial</text>
</g>
<!-- title&#45;&gt;game_loop -->
<g id="edge1" class="edge">
<title>title&#45;&gt;game_loop</title>
<path fill="none" stroke="black" d="M348,-369.7C348,-361.98 348,-352.71 348,-344.11"/>
<polygon fill="black" stroke="black" points="351.5,-344.1 348,-334.1 344.5,-344.1 351.5,-344.1"/>
</g>
<!-- tempo -->
<g id="node3" class="node">
<title>tempo</title>
<path fill="#fefae0" stroke="#333333" d="M128,-174C128,-174 12,-174 12,-174 6,-174 0,-168 0,-162 0,-162 0,-145 0,-145 0,-139 6,-133 12,-133 12,-133 128,-133 128,-133 134,-133 140,-139 140,-145 140,-145 140,-162 140,-162 140,-168 134,-174 128,-174"/>
<text text-anchor="middle" x="70" y="-162" font-family="Arial" font-size="10.00">Sistema de Tempo</text>
<text text-anchor="middle" x="70" y="-151" font-family="Arial" font-size="10.00">Blocos horários • Travar 22h</text>
<text text-anchor="middle" x="70" y="-140" font-family="Arial" font-size="10.00">Ações por hora livre</text>
</g>
<!-- game_loop&#45;&gt;tempo -->
<g id="edge2" class="edge">
<title>game_loop&#45;&gt;tempo</title>
<path fill="none" stroke="black" d="M221.8,-304.26C162.46,-296.46 100.48,-283.41 81,-262 62.19,-241.33 61.55,-208.32 64.3,-184.33"/>
<polygon fill="black" stroke="black" points="67.77,-184.73 65.69,-174.34 60.84,-183.76 67.77,-184.73"/>
</g>
<!-- atributos -->
<g id="node4" class="node">
<title>atributos</title>
<path fill="#fefae0" stroke="#333333" d="M246.5,-262C246.5,-262 101.5,-262 101.5,-262 95.5,-262 89.5,-256 89.5,-250 89.5,-250 89.5,-222 89.5,-222 89.5,-216 95.5,-210 101.5,-210 101.5,-210 246.5,-210 246.5,-210 252.5,-210 258.5,-216 258.5,-222 258.5,-222 258.5,-250 258.5,-250 258.5,-256 252.5,-262 246.5,-262"/>
<text text-anchor="middle" x="174" y="-250" font-family="Arial" font-size="10.00">Atributos</text>
<text text-anchor="middle" x="174" y="-239" font-family="Arial" font-size="10.00">Prim: Energia, Fome, Humor</text>
<text text-anchor="middle" x="174" y="-228" font-family="Arial" font-size="10.00">Sec: Magia, Conhecimento, Força,</text>
<text text-anchor="middle" x="174" y="-217" font-family="Arial" font-size="10.00">Agilidade, Carisma</text>
</g>
<!-- game_loop&#45;&gt;atributos -->
<g id="edge3" class="edge">
<title>game_loop&#45;&gt;atributos</title>
<path fill="none" stroke="black" d="M309.81,-297.88C289.15,-288.62 263.05,-276.92 239.27,-266.26"/>
<polygon fill="black" stroke="black" points="240.49,-262.97 229.94,-262.07 237.63,-269.36 240.49,-262.97"/>
</g>
<!-- disciplinas -->
<g id="node5" class="node">
<title>disciplinas</title>
<path fill="#fefae0" stroke="#333333" d="M407.5,-256.5C407.5,-256.5 288.5,-256.5 288.5,-256.5 282.5,-256.5 276.5,-250.5 276.5,-244.5 276.5,-244.5 276.5,-227.5 276.5,-227.5 276.5,-221.5 282.5,-215.5 288.5,-215.5 288.5,-215.5 407.5,-215.5 407.5,-215.5 413.5,-215.5 419.5,-221.5 419.5,-227.5 419.5,-227.5 419.5,-244.5 419.5,-244.5 419.5,-250.5 413.5,-256.5 407.5,-256.5"/>
<text text-anchor="middle" x="348" y="-244.5" font-family="Arial" font-size="10.00">Disciplinas &amp; XP</text>
<text text-anchor="middle" x="348" y="-233.5" font-family="Arial" font-size="10.00">História • Alquimia • Controle</text>
<text text-anchor="middle" x="348" y="-222.5" font-family="Arial" font-size="10.00">Combate • Estratégia</text>
</g>
<!-- game_loop&#45;&gt;disciplinas -->
<g id="edge4" class="edge">
<title>game_loop&#45;&gt;disciplinas</title>
<path fill="none" stroke="black" d="M348,-297.69C348,-288.6 348,-277.21 348,-266.76"/>
<polygon fill="black" stroke="black" points="351.5,-266.74 348,-256.74 344.5,-266.74 351.5,-266.74"/>
</g>
<!-- engine -->
<g id="node6" class="node">
<title>engine</title>
<path fill="#fefae0" stroke="#333333" d="M592.5,-256.5C592.5,-256.5 449.5,-256.5 449.5,-256.5 443.5,-256.5 437.5,-250.5 437.5,-244.5 437.5,-244.5 437.5,-227.5 437.5,-227.5 437.5,-221.5 443.5,-215.5 449.5,-215.5 449.5,-215.5 592.5,-215.5 592.5,-215.5 598.5,-215.5 604.5,-221.5 604.5,-227.5 604.5,-227.5 604.5,-244.5 604.5,-244.5 604.5,-250.5 598.5,-256.5 592.5,-256.5"/>
<text text-anchor="middle" x="521" y="-244.5" font-family="Arial" font-size="10.00">Engine de Eventos</text>
<text text-anchor="middle" x="521" y="-233.5" font-family="Arial" font-size="10.00">Rolagem por hora • Pesos por tipo</text>
<text text-anchor="middle" x="521" y="-222.5" font-family="Arial" font-size="10.00">Gatilhos por afinidade/área</text>
</g>
<!-- game_loop&#45;&gt;engine -->
<g id="edge5" class="edge">
<title>game_loop&#45;&gt;engine</title>
<path fill="none" stroke="black" d="M385.97,-297.88C410.17,-286.97 441.86,-272.68 468.46,-260.69"/>
<polygon fill="black" stroke="black" points="469.96,-263.85 477.64,-256.55 467.08,-257.47 469.96,-263.85"/>
</g>
<!-- progressao -->
<g id="node7" class="node">
<title>progressao</title>
<path fill="#fefae0" stroke="#333333" d="M729.5,-256.5C729.5,-256.5 634.5,-256.5 634.5,-256.5 628.5,-256.5 622.5,-250.5 622.5,-244.5 622.5,-244.5 622.5,-227.5 622.5,-227.5 622.5,-221.5 628.5,-215.5 634.5,-215.5 634.5,-215.5 729.5,-215.5 729.5,-215.5 735.5,-215.5 741.5,-221.5 741.5,-227.5 741.5,-227.5 741.5,-244.5 741.5,-244.5 741.5,-250.5 735.5,-256.5 729.5,-256.5"/>
<text text-anchor="middle" x="682" y="-244.5" font-family="Arial" font-size="10.00">Progressão</text>
<text text-anchor="middle" x="682" y="-233.5" font-family="Arial" font-size="10.00">Desbloqueios • Provas</text>
<text text-anchor="middle" x="682" y="-222.5" font-family="Arial" font-size="10.00">Missões principais/side</text>
</g>
<!-- game_loop&#45;&gt;progressao -->
<g id="edge6" class="edge">
<title>game_loop&#45;&gt;progressao</title>
<path fill="none" stroke="black" d="M453.11,-297.95C502.39,-288.97 561.65,-276.74 614,-262 616.58,-261.27 619.2,-260.5 621.84,-259.68"/>
<polygon fill="black" stroke="black" points="622.98,-262.99 631.41,-256.58 620.82,-256.33 622.98,-262.99"/>
</g>
<!-- camada_dados -->
<g id="node11" class="node">
<title>camada_dados</title>
<path fill="none" stroke="#333333" d="M480,-97C480,-97 216,-97 216,-97 210,-97 204,-91 204,-85 204,-85 204,-12 204,-12 204,-6 210,0 216,0 216,0 480,0 480,0 486,0 492,-6 492,-12 492,-12 492,-85 492,-85 492,-91 486,-97 480,-97"/>
<text text-anchor="middle" x="348" y="-85" font-family="Arial" font-size="10.00">Camada de Dados</text>
<text text-anchor="middle" x="348" y="-62" font-family="Arial" font-size="10.00">• events.json (regras, pesos, gatilhos)</text>
<text text-anchor="middle" x="348" y="-51" font-family="Arial" font-size="10.00">• disciplines.json (XP por aula/estudo)</text>
<text text-anchor="middle" x="348" y="-40" font-family="Arial" font-size="10.00">• npcs.json (afinidade, agendas)</text>
<text text-anchor="middle" x="348" y="-29" font-family="Arial" font-size="10.00">• items.json (consumíveis, raros)</text>
<text text-anchor="middle" x="348" y="-18" font-family="Arial" font-size="10.00">• areas.json (salas, horários, bônus)</text>
<text text-anchor="middle" x="348" y="-7" font-family="Arial" font-size="10.00">• configs.json (tabelas de custo/restauro)</text>
</g>
<!-- tempo&#45;&gt;camada_dados -->
<g id="edge7" class="edge">
<title>tempo&#45;&gt;camada_dados</title>
<path fill="none" stroke="black" d="M122.94,-132.88C147.93,-123.63 179.03,-112.1 210.06,-100.61"/>
<polygon fill="black" stroke="black" points="211.52,-103.8 219.68,-97.04 209.09,-97.24 211.52,-103.8"/>
</g>
<!-- custos -->
<g id="node8" class="node">
<title>custos</title>
<path fill="#fefae0" stroke="#333333" d="M299.5,-171.5C299.5,-171.5 186.5,-171.5 186.5,-171.5 180.5,-171.5 174.5,-165.5 174.5,-159.5 174.5,-159.5 174.5,-147.5 174.5,-147.5 174.5,-141.5 180.5,-135.5 186.5,-135.5 186.5,-135.5 299.5,-135.5 299.5,-135.5 305.5,-135.5 311.5,-141.5 311.5,-147.5 311.5,-147.5 311.5,-159.5 311.5,-159.5 311.5,-165.5 305.5,-171.5 299.5,-171.5"/>
<text text-anchor="middle" x="243" y="-156.5" font-family="Arial" font-size="10.00">Custos &amp; Efeitos</text>
<text text-anchor="middle" x="243" y="-145.5" font-family="Arial" font-size="10.00">Drenos/Restauros por ação</text>
</g>
<!-- atributos&#45;&gt;custos -->
<g id="edge8" class="edge">
<title>atributos&#45;&gt;custos</title>
<path fill="none" stroke="black" d="M195.45,-209.97C203.8,-200.23 213.34,-189.11 221.67,-179.38"/>
<polygon fill="black" stroke="black" points="224.48,-181.48 228.33,-171.61 219.17,-176.93 224.48,-181.48"/>
</g>
<!-- disciplinas&#45;&gt;camada_dados -->
<g id="edge10" class="edge">
<title>disciplinas&#45;&gt;camada_dados</title>
<path fill="none" stroke="black" d="M348,-215.5C348,-190.08 348,-144.49 348,-107.52"/>
<polygon fill="black" stroke="black" points="351.5,-107.34 348,-97.34 344.5,-107.34 351.5,-107.34"/>
</g>
<!-- tipos_evento -->
<g id="node9" class="node">
<title>tipos_evento</title>
<path fill="#fefae0" stroke="#333333" d="M541.5,-174C541.5,-174 418.5,-174 418.5,-174 412.5,-174 406.5,-168 406.5,-162 406.5,-162 406.5,-145 406.5,-145 406.5,-139 412.5,-133 418.5,-133 418.5,-133 541.5,-133 541.5,-133 547.5,-133 553.5,-139 553.5,-145 553.5,-145 553.5,-162 553.5,-162 553.5,-168 547.5,-174 541.5,-174"/>
<text text-anchor="middle" x="480" y="-162" font-family="Arial" font-size="10.00">Tipos de Evento</text>
<text text-anchor="middle" x="480" y="-151" font-family="Arial" font-size="10.00">Social • Conflito • Descoberta</text>
<text text-anchor="middle" x="480" y="-140" font-family="Arial" font-size="10.00">Missão • Negativo</text>
</g>
<!-- engine&#45;&gt;tipos_evento -->
<g id="edge11" class="edge">
<title>engine&#45;&gt;tipos_evento</title>
<path fill="none" stroke="black" d="M510.87,-215.1C505.95,-205.45 499.96,-193.68 494.56,-183.09"/>
<polygon fill="black" stroke="black" points="497.68,-181.49 490.02,-174.17 491.44,-184.67 497.68,-181.49"/>
</g>
<!-- desbloqueios -->
<g id="node10" class="node">
<title>desbloqueios</title>
<path fill="#fefae0" stroke="#333333" d="M735.5,-174C735.5,-174 598.5,-174 598.5,-174 592.5,-174 586.5,-168 586.5,-162 586.5,-162 586.5,-145 586.5,-145 586.5,-139 592.5,-133 598.5,-133 598.5,-133 735.5,-133 735.5,-133 741.5,-133 747.5,-139 747.5,-145 747.5,-145 747.5,-162 747.5,-162 747.5,-168 741.5,-174 735.5,-174"/>
<text text-anchor="middle" x="667" y="-162" font-family="Arial" font-size="10.00">Desbloqueios</text>
<text text-anchor="middle" x="667" y="-151" font-family="Arial" font-size="10.00">Poderes • Áreas secretas</text>
<text text-anchor="middle" x="667" y="-140" font-family="Arial" font-size="10.00">Eventos exclusivos por afinidade</text>
</g>
<!-- progressao&#45;&gt;desbloqueios -->
<g id="edge13" class="edge">
<title>progressao&#45;&gt;desbloqueios</title>
<path fill="none" stroke="black" d="M678.29,-215.1C676.55,-205.74 674.43,-194.39 672.51,-184.06"/>
<polygon fill="black" stroke="black" points="675.94,-183.36 670.67,-174.17 669.06,-184.64 675.94,-183.36"/>
</g>
<!-- custos&#45;&gt;camada_dados -->
<g id="edge9" class="edge">
<title>custos&#45;&gt;camada_dados</title>
<path fill="none" stroke="black" d="M260.34,-135.49C269.21,-126.79 280.57,-115.64 292.15,-104.29"/>
<polygon fill="black" stroke="black" points="294.67,-106.71 299.36,-97.21 289.77,-101.72 294.67,-106.71"/>
</g>
<!-- tipos_evento&#45;&gt;camada_dados -->
<g id="edge12" class="edge">
<title>tipos_evento&#45;&gt;camada_dados</title>
<path fill="none" stroke="black" d="M454.86,-132.88C443.92,-124.35 430.51,-113.88 416.93,-103.28"/>
<polygon fill="black" stroke="black" points="418.97,-100.44 408.93,-97.04 414.66,-105.95 418.97,-100.44"/>
</g>
<!-- desbloqueios&#45;&gt;camada_dados -->
<g id="edge14" class="edge">
<title>desbloqueios&#45;&gt;camada_dados</title>
<path fill="none" stroke="black" d="M606.25,-132.88C576.46,-123.27 539.1,-111.2 502.12,-99.26"/>
<polygon fill="black" stroke="black" points="502.82,-95.81 492.23,-96.07 500.67,-102.47 502.82,-95.81"/>
</g>
</g>

<defs>
  <linearGradient id="bgGradient" x1="0%" y1="0%" x2="0%" y2="100%">
    <stop offset="0%" style="stop-color:#fefae0;stop-opacity:1"/>
    <stop offset="100%" style="stop-color:#e9edc9;stop-opacity:1"/>
  </linearGradient>
</defs>
</svg>
